<mxfile host="app.diagrams.net" modified="2022-03-09T08:35:41.637Z" agent="5.0 (Windows NT 10.0; WOW64) AppleWebKit/537.36 (KHTML, like Gecko) Chrome/70.0.3538.25 Safari/537.36 Core/1.70.3883.400 QQBrowser/10.8.4559.400" etag="ymEashB9NFVUHp2ukTec" version="17.0.0" type="github">
  <diagram id="BWuPBko2al6TCMlahTNg" name="第 1 页">
    <mxGraphModel dx="1422" dy="740" grid="1" gridSize="10" guides="1" tooltips="1" connect="1" arrows="1" fold="1" page="1" pageScale="1" pageWidth="827" pageHeight="1169" math="0" shadow="0">
      <root>
        <mxCell id="0" />
        <mxCell id="1" parent="0" />
        <mxCell id="aPQG1CdQOvyfhxDG0_fg-2" value="" style="rounded=0;whiteSpace=wrap;html=1;" parent="1" vertex="1">
          <mxGeometry x="40" y="30" width="320" height="690" as="geometry" />
        </mxCell>
        <mxCell id="aPQG1CdQOvyfhxDG0_fg-3" value="" style="rounded=0;whiteSpace=wrap;html=1;" parent="1" vertex="1">
          <mxGeometry x="50" y="40" width="300" height="20" as="geometry" />
        </mxCell>
        <mxCell id="aPQG1CdQOvyfhxDG0_fg-5" value="" style="rounded=0;whiteSpace=wrap;html=1;" parent="1" vertex="1">
          <mxGeometry x="50" y="70" width="300" height="110" as="geometry" />
        </mxCell>
        <mxCell id="aPQG1CdQOvyfhxDG0_fg-7" value="" style="ellipse;whiteSpace=wrap;html=1;aspect=fixed;" parent="1" vertex="1">
          <mxGeometry x="400" y="40" width="40" height="40" as="geometry" />
        </mxCell>
      </root>
    </mxGraphModel>
  </diagram>
</mxfile>
